<svg width="403" height="62" viewBox="0 0 403 62" fill="none" xmlns="http://www.w3.org/2000/svg">
<path d="M23.0969 19.0801V40.9111C26.0419 39.3181 28.1039 36.5451 29.1049 33.4171L29.3409 33.5371C28.6919 41.3251 23.3909 49.1121 15.1449 49.1121C6.83987 49.1121 0.713867 42.9171 0.713867 33.0041C0.713867 25.5711 5.54387 20.9091 11.7289 16.7191C10.8251 16.4818 9.8943 16.3628 8.95987 16.3651C4.71787 16.3651 2.24487 19.2561 2.24487 22.2071H1.88987C1.83087 21.7941 1.83087 21.3811 1.83087 20.9681C1.83087 15.7171 4.59987 9.34408 11.3149 9.34408C15.6149 9.34408 18.9139 13.2971 23.9199 13.2971C25.9229 13.2971 28.3969 12.3531 29.3979 10.1701H29.5749C29.5159 14.0061 28.3399 17.9601 23.0969 19.0801ZM26.2769 41.4421C23.3319 44.5691 20.1519 47.2241 16.0289 47.2241C8.37187 47.2241 2.48187 41.2061 2.48187 32.4741C2.48187 27.3411 4.60187 24.5681 6.95787 21.3221H6.72187C5.24887 22.7971 1.36187 26.5141 1.36187 32.8271C1.36187 42.5041 7.42887 48.4631 15.3809 48.4631C20.9179 48.4631 24.6869 44.6291 26.3959 41.5021L26.2769 41.4421ZM28.6329 12.8261C27.6319 14.7141 25.5119 17.1331 21.2119 17.1331C16.9119 17.1331 12.9659 14.1831 9.48987 14.1831C6.30887 14.1831 4.12987 16.3071 3.30487 17.9001L3.36487 18.0181C4.48287 16.8981 6.19087 15.7761 8.95987 15.7761C13.5539 15.7761 16.4999 18.6091 21.1529 18.6091C26.1009 18.6091 28.3389 15.3631 28.7509 12.8861L28.6329 12.8261ZM12.2579 16.8971C9.25387 20.0251 6.48487 23.4471 6.48487 30.1141C6.48487 33.7711 7.72187 37.5481 10.4909 39.9081L12.1989 39.0221V23.2091L10.6089 24.0351L10.3139 23.4451L18.5609 18.9601C16.3229 18.4901 14.3199 17.4861 12.2579 16.8961V16.8971ZM22.4479 19.1981C22.0359 19.2561 21.6239 19.2561 21.1529 19.2561C20.3279 19.2561 19.5629 19.1981 18.7969 19.0201V36.2491L11.0799 40.4411C12.6699 41.6211 14.6139 42.3281 17.0879 42.3281C19.0909 42.3281 20.8579 41.9151 22.4479 41.2071V19.1981ZM13.9669 22.2081L12.8469 22.8561V38.6701L13.9669 38.0801V22.2081ZM47.8359 24.4491V44.8641C47.8359 50.5281 42.8289 54.3641 37.2339 55.4841L37.1159 55.2481C39.8849 53.8911 41.4759 51.1181 41.4759 48.1681V27.0451L38.2949 24.1551L37.0579 25.5111V41.9731L38.8249 43.5661V43.6851L34.0539 48.8771L28.5759 43.8621V43.6251L30.6959 41.3831V15.3041L36.9399 8.63908L37.0579 8.69708V24.5091L42.1829 18.9631L47.5429 23.8021L48.5429 22.7391L49.0149 23.1531L47.8359 24.4491ZM31.3429 43.7431V43.6251L32.5799 42.3851V14.3021L31.3429 15.5991V41.7951L29.4579 43.6841V43.8011L34.0519 47.9311L34.8759 46.9871L31.3429 43.7431ZM43.3599 26.1011L39.5319 22.7971L38.7069 23.6821L42.1239 26.7521V47.9921C42.1239 49.4081 41.8289 50.8821 41.2989 51.7091L41.3589 51.7681C42.8309 50.7051 43.3609 49.1121 43.3609 47.0481L43.3599 26.1011ZM57.2019 36.3091V39.3171L62.9149 43.8021L66.2139 40.2621L66.6859 40.7331L59.0289 48.9341L51.2529 42.6801L50.0759 43.9201L49.6039 43.4481L50.9589 42.0321V27.1041L62.0919 18.9621L67.9229 28.4021L57.2019 36.3091ZM52.8419 41.5021V26.5141L51.6059 27.4001V42.0921L58.9099 48.0511L59.8529 47.0481L52.8419 41.5021ZM57.3199 23.3281L57.2019 23.3881V35.4831L62.4439 31.6481L57.3199 23.3281ZM58.8509 22.1481L57.7909 22.9151L62.9749 31.2351L64.0349 30.4671L58.8509 22.1481ZM106.318 48.8761L98.1299 41.7961L91.8869 48.8761L83.4039 41.5591V29.9951H81.7549C80.2819 29.9951 79.5169 30.9401 79.1629 32.0601H78.9859C78.798 31.3273 78.6993 30.5745 78.6919 29.8181C78.6919 28.2841 79.1049 24.2721 83.4039 24.2721V14.1241C83.4039 12.1771 81.1069 11.4101 81.1069 8.81408C81.1069 5.45108 84.2869 2.14708 90.1199 0.0800781L90.3559 0.257078C88.2359 1.49708 87.1159 2.67708 87.1159 5.21408C87.1159 9.10908 90.8859 8.10508 90.8859 14.2411V16.6011L97.7779 9.34408L105.023 16.4841L111.856 9.34408L118.452 15.8341V37.6651L106.318 48.8761ZM85.2899 40.6161V28.1671H81.9899C80.2819 28.1671 79.5169 29.2871 79.3989 30.2911L79.4569 30.3511C80.0469 29.7011 80.6359 29.3481 81.9899 29.3481H84.0509V41.2661L91.8269 47.9931L92.7099 46.9301L85.2899 40.6161ZM85.2899 13.5331C85.2899 11.1151 83.1699 10.2881 83.1699 8.75508C83.1699 6.63008 83.9939 4.86108 85.2899 3.20908L85.1719 3.15008C83.4049 4.50808 81.7559 6.69108 81.7559 8.81408C81.7559 10.9391 84.0529 11.9411 84.0529 13.8301V24.2731H85.2899V13.5331ZM97.7179 19.4341L93.2419 15.0681L90.8859 17.4871V38.3731L96.2459 42.9171L97.7179 41.2641V19.4341ZM99.6029 40.4991V18.6091L94.5959 13.6531L93.6539 14.5971L98.3659 19.1401V41.1481L106.318 48.0511L107.261 47.1651L99.6029 40.4991ZM111.03 18.6691L107.32 15.1271L105.2 17.3111V38.3161L110.972 43.3891L111.03 43.3311V18.6671V18.6691ZM112.915 17.8421L108.615 13.6531L107.732 14.5971L111.678 18.3731V43.0361L112.915 41.8561V17.8411V17.8421ZM137.944 48.8761L132.348 43.8021L127.341 48.8761L121.215 43.4481L120.39 44.3321L119.919 43.8611L120.979 42.7401V26.9281L132.053 18.9031L138.415 23.8601L139.535 22.6801L140.006 23.1521L138.71 24.5091V40.8531L141.832 43.7431L142.833 42.6811L143.304 43.0941L137.944 48.8761ZM122.864 42.3271V26.3971L121.628 27.2811V42.9171L127.283 47.9921L128.225 47.0481L122.865 42.3281L122.864 42.3271ZM132.348 26.8101L127.518 23.0331L127.341 23.1521V40.3211L131.347 43.8011L132.347 42.7991V26.8091L132.348 26.8101ZM134.233 42.8581V25.9251L129.226 21.8531L128.049 22.6791L132.996 26.5731V43.4491L137.944 47.9331L138.828 46.9881L134.233 42.8581ZM155.084 29.6411H161.151V42.2691L151.786 48.8771C150.549 47.4611 148.781 46.4581 146.602 46.4581C144.835 46.4581 143.421 47.0481 141.537 48.6411L141.242 48.5231L149.254 36.8411H144.305V25.8651L154.143 19.0211C155.32 19.9651 156.203 20.4951 157.736 20.4951C158.914 20.4951 160.622 20.2591 161.918 19.1981L162.154 19.3161L155.084 29.6411ZM148.488 44.7461C146.779 44.7461 145.425 45.3361 144.246 46.1621V46.2801C145.189 45.8671 146.131 45.7501 147.015 45.7501C148.369 45.7501 150.49 46.3991 151.904 48.0511L153.259 47.0481C152.139 45.7491 150.785 44.7461 148.488 44.7461ZM154.789 34.8331H151.491L144.599 44.8061L144.658 44.9241C146.366 43.6841 148.015 42.8591 150.018 42.8591C151.785 42.8591 153.611 43.6851 154.73 45.1011L154.79 45.0421L154.789 34.8331ZM146.189 34.8331V25.3351L144.953 26.2201V36.1321H149.723L150.666 34.8341H146.19L146.189 34.8331ZM158.501 23.2691C157.264 24.1551 156.557 24.6261 154.495 24.6261C153.317 24.6261 151.903 24.0961 150.785 22.9151L150.667 22.9751V31.5881H152.905L158.56 23.3281L158.5 23.2681L158.501 23.2691ZM155.674 22.7381C154.614 22.7381 153.259 22.2081 152.374 21.0281L150.902 22.0301C152.022 23.3871 153.082 23.9771 154.73 23.9771C155.79 23.9771 157.322 23.6811 158.913 22.3241L158.971 22.1481C157.971 22.5621 156.734 22.7381 155.674 22.7381ZM156.674 32.8881H152.846L151.962 34.1261H155.438V45.5721L156.675 44.6871V32.8871L156.674 32.8881ZM181.473 24.4491V44.8641C181.473 50.5281 176.466 54.3641 170.87 55.4841L170.753 55.2481C173.522 53.8911 175.112 51.1181 175.112 48.1681V27.0451L171.932 24.1551L170.694 25.5111V41.9731L172.461 43.5661V43.6851L167.691 48.8771L162.213 43.8621V43.6251L164.333 41.3831V15.3041L170.577 8.63808L170.694 8.69608V24.5091L175.819 18.9631L181.179 23.8021L182.18 22.7391L182.652 23.1531L181.472 24.4491H181.473ZM164.98 43.7431V43.6251L166.217 42.3851V14.3021L164.98 15.5991V41.7951L163.095 43.6841V43.8021L167.689 47.9321L168.513 46.9871L164.98 43.7431ZM176.996 26.1011L173.167 22.7971L172.343 23.6821L175.759 26.7521V47.9921C175.759 49.4081 175.465 50.8821 174.935 51.7091L174.995 51.7681C176.467 50.7051 176.997 49.1121 176.997 47.0481L176.996 26.1011ZM192.194 48.8761L187.128 44.2151L185.949 45.4541L185.477 44.9811L186.833 43.5071V26.4561L184.359 24.0961L183.416 25.1581L182.945 24.6861L188.245 18.9031L192.958 23.1521L194.136 21.8541L194.666 22.2671L193.194 23.8601V41.0901L196.022 43.7441L197.318 42.3861L197.788 42.8591L192.194 48.8761ZM188.718 43.0941V25.5111L185.655 22.6791L184.831 23.6241L187.481 26.1611V43.6851L192.194 47.9321L193.077 46.9881L188.718 43.0941ZM190.485 18.4321L185.655 14.0071L190.073 9.28708L194.903 13.7111L190.485 18.4311V18.4321ZM187.481 13.0621L186.598 13.9471L190.426 17.5461L191.309 16.5431L187.481 13.0621ZM217.1 48.8761L211.975 44.2151V26.9871L208.853 24.1551L207.203 25.9251V41.8551L209.03 43.5651V43.8021L204.2 48.8761L198.722 43.8611V43.6841L200.842 41.4421V26.5731L198.074 24.0361L196.954 25.2751L196.484 24.8031L201.844 18.9621L207.204 23.7421V24.9221L212.8 18.9621L218.041 23.6821L219.22 22.4431L219.75 22.9151L218.336 24.3901V41.2641L220.986 43.7421L222.283 42.3261L222.753 42.7981L217.1 48.8761ZM201.55 43.7431V43.6251C201.55 43.7431 202.728 42.4451 202.728 42.4451V25.6871L199.37 22.6191L198.545 23.5041L201.49 26.2181V41.7941L199.664 43.6831V43.8011L204.2 47.9311L205.142 46.9281L201.55 43.7431ZM213.86 43.2711V25.9841L210.208 22.6791L209.266 23.6821L212.623 26.6911V43.8611L217.04 47.9911L217.983 46.9871L213.86 43.2711ZM233.71 59.4961C231.768 57.3721 230.412 56.4871 228.586 56.4871C226.643 56.4871 224.404 57.2551 222.107 58.4931L221.93 58.3171L230.059 48.8771L224.286 44.2751L223.167 45.4551L222.697 45.0421L223.991 43.6261V26.9291L235.183 18.9041L241.427 23.8611L242.487 22.6811L242.959 23.1531L241.722 24.5101V44.6901C241.722 47.7571 243.429 47.6401 243.429 49.9401C243.429 52.5941 239.6 55.0711 233.71 59.4961ZM225.877 43.1531V26.4561L224.64 27.3411V43.6851L230.47 48.4051L231.355 47.3421L225.877 43.1531ZM230 54.9531C228.056 54.9531 226.288 55.5431 224.64 56.6641V56.7831C225.7 56.3701 226.878 55.8391 228.88 55.8391C230.707 55.8391 232.238 56.8411 233.77 58.6121L234.948 57.6681C233.475 55.9581 231.708 54.9541 230 54.9541V54.9531ZM237.186 49.2891C235.714 48.3451 235.36 47.3421 235.36 44.8051V43.7421L225.582 55.0701L225.641 55.1291C227.525 54.0091 229.234 53.1831 232.003 53.1831C234.359 53.1831 235.949 54.1261 237.775 55.6611C238.895 54.7171 239.66 53.7731 239.66 52.2981C239.66 51.1181 238.658 50.2331 237.186 49.2891ZM235.36 26.8091L230.47 22.9751L230.352 23.0931V41.2061L234.123 44.1561L235.36 42.7401V26.8101V26.8091ZM238.953 48.4631C237.421 47.2831 237.244 46.2801 237.244 43.7431V25.8071L232.296 21.7951L231.178 22.5621L236.008 26.3961V44.5691C236.008 47.1061 236.126 47.8151 237.716 48.8761C239.13 49.8201 240.248 50.8231 240.248 52.1801C240.248 52.5331 240.19 53.1241 240.19 53.1241L240.248 53.1831C240.543 52.8871 240.897 52.4161 240.897 51.6481C240.897 50.3511 240.249 49.4661 238.953 48.4631ZM253.09 48.8761L247.67 44.6281L246.552 45.8671L246.081 45.3941L247.376 43.9791V23.3291H243.959L243.841 23.2101L245.903 20.1411H247.375V16.1891L253.619 9.52208L253.737 9.64108V20.1421H258.449L258.568 20.2611L256.506 23.3291H253.736V41.2071L256.977 43.6861L258.214 42.3281L258.685 42.8001L253.09 48.8761ZM249.261 15.1861L248.024 16.5431V20.1431H249.261V15.1861ZM249.261 43.3891V23.3291H248.024V44.0971L253.031 47.9921L253.914 47.0481L249.261 43.3891ZM277.946 25.0391V41.5591L267.992 48.9351L260.51 43.2711L259.627 44.2741L259.156 43.8021L260.216 42.6221V26.4561L270.643 18.9621L277.593 24.3911L278.711 23.2111L279.183 23.6821L277.946 25.0391ZM262.102 42.0321V25.9251L260.865 26.8101V42.6811L267.933 48.1091L269.053 47.2841L262.102 42.0321ZM271.585 26.9871L266.637 23.0921L266.579 23.1521V40.7331L271.585 44.5091V26.9871ZM273.471 25.9251L267.992 21.6751L266.874 22.5021L272.234 26.6321V44.9821L273.471 44.0391V25.9251ZM300.448 48.8751L295.323 44.2151V26.9871L292.201 24.1551L290.551 25.9251V41.8551L292.378 43.5651V43.8021L287.548 48.8761L282.07 43.8611V43.6841L284.19 41.4421V26.5731L281.422 24.0361L280.302 25.2751L279.832 24.8031L285.192 18.9621L290.552 23.7421V24.9221L296.148 18.9621L301.39 23.6821L302.568 22.4431L303.098 22.9151L301.684 24.3901V41.2641L304.334 43.7421L305.631 42.3261L306.101 42.7981L300.448 48.8751ZM284.897 43.7431V43.6251C284.897 43.7431 286.075 42.4451 286.075 42.4451V25.6871L282.718 22.6191L281.894 23.5041L284.839 26.2181V41.7941L283.013 43.6831V43.8011L287.549 47.9311L288.491 46.9281L284.897 43.7431ZM297.207 43.2711V25.9841L293.557 22.6791L292.614 23.6821L295.971 26.6911V43.8611L300.388 47.9911L301.331 46.9871L297.208 43.2711H297.207ZM336.837 48.8761C335.187 47.1061 334.599 46.5161 332.654 45.9851V57.5491L332.536 57.6081L330.18 55.4831L323.347 61.7961L323.229 61.7381V45.8671C321.167 46.3391 318.988 47.4011 316.867 49.5241L316.749 49.4661C317.162 44.9231 319.399 41.5601 323.228 40.2621V28.7561H321.991C320.283 28.7561 319.341 29.6411 318.516 31.2341H318.34C318.163 30.7041 318.044 29.8771 318.044 28.5211C318.044 26.0421 319.871 23.4471 322.875 23.4471H323.228V17.0741L320.813 14.8911L319.635 16.0711L319.222 15.6581L325.172 9.34508L330.708 14.4191V19.7891L332.004 18.3721V11.5871H332.652V17.7821L340.485 9.34408L347.141 15.4221V41.0881L336.837 48.8761ZM323.23 43.6841C320.816 44.1551 319.108 45.6311 317.989 47.5781L318.047 47.6961C319.697 46.2801 321.227 45.6321 323.23 45.1591V43.6841ZM325.116 26.7511H321.876C319.637 26.7511 318.754 28.1671 318.696 29.8191L318.754 29.8781C319.461 28.6981 320.167 28.2851 321.581 28.1081H323.879V60.2641L325.116 59.0841V26.7511ZM325.116 16.1301L322.17 13.4171L321.228 14.4191L323.878 16.7791V23.4461H325.116V16.1291V16.1301ZM332.008 19.4931L330.712 20.8501V55.0131L332.008 56.1931V19.4931ZM339.724 18.1361L336.248 14.9501L332.655 18.8451V39.6131C335.718 39.9091 337.838 40.7931 339.665 42.7991L339.724 42.7401V18.1361ZM332.655 43.6841V45.2181C334.658 45.6901 335.482 46.2801 336.895 47.9321L338.251 46.8701C336.837 45.1001 335.423 44.0391 332.655 43.6841ZM341.608 17.1931L337.603 13.4751L336.66 14.4781L340.371 17.9001V45.3361L341.608 44.3921V17.1931ZM367.702 25.0401V41.5601L357.746 48.9351L350.266 43.2711L349.382 44.2741L348.911 43.8021L349.971 42.6221V26.4561L360.398 18.9621L367.348 24.3911L368.466 23.2111L368.938 23.6821L367.702 25.0401ZM351.857 42.0321V25.9251L350.62 26.8101V42.6811L357.688 48.1091L358.808 47.2841L351.857 42.0321ZM361.34 26.9871L356.393 23.0921L356.333 23.1521V40.7331L361.34 44.5091V26.9871ZM363.226 25.9251L357.747 21.6751L356.629 22.5021L361.989 26.6321V44.9821L363.226 44.0391V25.9251ZM381.366 29.6411H387.434V42.2691L378.069 48.8771C376.832 47.4611 375.065 46.4581 372.886 46.4581C371.119 46.4581 369.706 47.0481 367.82 48.6411L367.526 48.5231L375.536 36.8411H370.588V25.8651L380.425 19.0211C381.604 19.9651 382.486 20.4951 384.018 20.4951C385.197 20.4951 386.904 20.2591 388.2 19.1981L388.436 19.3161L381.366 29.6411ZM374.77 44.7461C373.062 44.7461 371.707 45.3361 370.53 46.1621V46.2801C371.472 45.8671 372.414 45.7501 373.298 45.7501C374.653 45.7501 376.773 46.3991 378.186 48.0511L379.542 47.0481C378.423 45.7491 377.068 44.7461 374.77 44.7461ZM381.073 34.8331H377.775L370.884 44.8061L370.942 44.9241C372.65 43.6841 374.299 42.8591 376.302 42.8591C378.069 42.8591 379.895 43.6851 381.014 45.1011L381.073 45.0421V34.8331ZM372.473 34.8331V25.3351L371.236 26.2201V36.1321H376.006L376.949 34.8341L372.473 34.8331ZM384.784 23.2691C383.546 24.1551 382.84 24.6261 380.778 24.6261C379.599 24.6261 378.185 24.0961 377.067 22.9151L376.949 22.9751V31.5881H379.186L384.841 23.3281L384.784 23.2681V23.2691ZM381.956 22.7381C380.896 22.7381 379.542 22.2081 378.658 21.0281L377.185 22.0301C378.305 23.3871 379.365 23.9771 381.015 23.9771C382.075 23.9771 383.606 23.6811 385.197 22.3241L385.255 22.1481C384.254 22.5621 383.017 22.7381 381.956 22.7381ZM382.958 32.8881H379.13L378.246 34.1261H381.721V45.5721L382.958 44.6871V32.8881ZM397.213 48.8761L391.793 44.6281L390.674 45.8671L390.204 45.3941L391.498 43.9791V23.3291H388.082L387.965 23.2101L390.025 20.1411H391.498V16.1891L397.742 9.52208L397.86 9.64108V20.1421H402.572L402.69 20.2611L400.628 23.3291H397.86V41.2071L401.1 43.6861L402.337 42.3281L402.807 42.8001L397.213 48.8761ZM393.383 15.1861L392.147 16.5431V20.1431H393.384V15.1861H393.383ZM393.383 43.3891V23.3291H392.147V44.0971L397.153 47.9921L398.037 47.0481L393.384 43.3891H393.383Z" fill="black"/>
</svg>
